Year: 2011
Genre: Pop
Length: 01:39:57
Description: Shakira: Live from Paris (Spanish: En vivo desde Parнs) is the concert from the upcoming fourth live album by Colombian singer-songwriter Shakira. It features performances from the June 13 and 14 concerts in Paris, France.

Shakira - Live From Paris H264 1080p AC3 5.1 ZUKTOR.mkv
Tracklist:
01. Pienso en Ti
02. Why Wait
03. Te Dejo Madrid
04. Si Te Vas
05. Whenever Wherever
06. Inevitable
07. Nothing Else Matters
08. Despedida
09. Gypsy
10. Tortura
11. Ciega Sordomuda
12. Underneath Your Clothes
13. Gordita
14. Sale el Sol
15. Las de la Intuicion
16. Loca
17. She Wolf
18. Ojos Asi
19. Antes de las Seis
20. Je L\'Aime a Mourir
21. Hips Don\'t Lie
22. Waka Waka

Shaki Bonuses H264 1080p AC3 2.0 ZUKTOR.mkv
Bonuses:
Shaki En Ensayos (Behind The Scenes)
Shaki & Sanziana (Behind The Scenes)
Shaki En Paris - Detras De Las Camaras Del DVD (Behind The Scenes)
Shaki - La Carrera De Burros (Behind The Scenes)
Shaki En El Golf (Behind The Scenes)

General
Unique ID                        : 168348648403719580577546155723716462494 (0x7EA6C532C2870C1E037BA147C20E879E)
Complete name                    : Shakira - Live From Paris H264 1080p AC3 5.1 ZUKTOR.mkv
Format                           : Matroska
Format version                   : Version 2
File size                        : 13.5 GiB
Duration                         : 1h 39mn
Overall bit rate                 : 19.4 Mbps
Writing application              : Lavf51.12.1
Writing library                  : Lavf51.12.1

Video
ID                               : 1
Format                           : AVC
Format/Info                      : Advanced Video Codec
Format profile                   : High@L4.1
Format settings, CABAC           : No
Format settings, ReFrames        : 1 frame
Format settings, GOP             : M=1, N=12
Codec ID                         : V_MPEG4/ISO/AVC
Duration                         : 1h 39mn
Bit rate                         : 18.6 Mbps
Width                            : 1 920 pixels
Height                           : 1 080 pixels
Display aspect ratio             : 16:9
Frame rate mode                  : Variable
Frame rate                       : 29.970 fps
Color space                      : YUV
Chroma subsampling               : 4:2:0
Bit depth                        : 8 bits
Scan type                        : Progressive
Bits/(Pixel*Frame)               : 0.299
Stream size                      : 13.0 GiB (96%)
Language                         : English
Default                          : Yes
Forced                           : No

Audio
ID                               : 2
Format                           : AC-3
Format/Info                      : Audio Coding 3
Mode extension                   : CM (complete main)
Codec ID                         : A_AC3
Duration                         : 1h 39mn
Bit rate mode                    : Constant
Bit rate                         : 448 Kbps
Channel(s)                       : 6 channels
Channel positions                : Front: L C R, Side: L R, LFE
Sampling rate                    : 48.0 KHz
Bit depth                        : 16 bits
Compression mode                 : Lossy
Stream size                      : 320 MiB (2%)
Language                         : English
Default                          : Yes
Forced                           : No


